M48
;DRILL file {Pcbnew (2013-june-11)-stable} date Sun 24 Jun 2018 22:12:41 EDT
;FORMAT={-:-/ absolute / inch / decimal}
FMAT,2
INCH,TZ
T1C0.025
T2C0.032
T3C0.039
T4C0.040
T5C0.049
T6C0.098
%
G90
G05
M72
T1
X2.25Y-3.65
X2.25Y-3.75
X2.25Y-3.85
X2.25Y-3.95
X2.25Y-4.05
X2.25Y-4.15
X2.25Y-4.25
X2.25Y-4.35
X2.25Y-4.45
X2.25Y-4.55
X2.25Y-4.65
X2.25Y-4.75
X2.25Y-4.85
X2.25Y-4.95
X2.25Y-5.05
X2.25Y-5.15
X2.25Y-5.25
X2.25Y-5.35
X2.35Y-3.65
X2.35Y-3.75
X2.35Y-3.85
X2.35Y-3.95
X2.35Y-4.05
X2.35Y-4.15
X2.35Y-4.25
X2.35Y-4.35
X2.35Y-4.45
X2.35Y-4.55
X2.35Y-4.65
X2.35Y-4.75
X2.35Y-4.85
X2.35Y-4.95
X2.35Y-5.05
X2.35Y-5.15
X2.35Y-5.25
X2.35Y-5.35
X2.45Y-3.65
X2.45Y-3.75
X2.45Y-3.85
X2.45Y-3.95
X2.45Y-4.05
X2.45Y-4.15
X2.45Y-4.25
X2.45Y-4.35
X2.45Y-4.45
X2.45Y-4.55
X2.45Y-4.65
X2.45Y-4.75
X2.45Y-4.85
X2.45Y-4.95
X2.45Y-5.05
X2.45Y-5.15
X2.45Y-5.25
X2.45Y-5.35
X2.55Y-3.65
X2.55Y-3.75
X2.55Y-3.85
X2.55Y-3.95
X2.55Y-4.05
X2.55Y-4.15
X2.55Y-4.25
X2.55Y-4.35
X2.55Y-4.45
X2.55Y-4.55
X2.55Y-4.65
X2.55Y-4.75
X2.55Y-4.85
X2.55Y-4.95
X2.55Y-5.05
X2.55Y-5.15
X2.55Y-5.25
X2.55Y-5.35
X2.65Y-3.65
X2.65Y-3.75
X2.65Y-3.85
X2.65Y-3.95
X2.65Y-4.05
X2.65Y-4.15
X2.65Y-4.25
X2.65Y-4.35
X2.65Y-4.45
X2.65Y-4.55
X2.65Y-4.65
X2.65Y-4.75
X2.65Y-4.85
X2.65Y-4.95
X2.65Y-5.05
X2.65Y-5.15
X2.65Y-5.25
X2.65Y-5.35
X2.75Y-3.65
X2.75Y-3.75
X2.75Y-3.85
X2.75Y-3.95
X2.75Y-4.05
X2.75Y-4.15
X2.75Y-4.25
X2.75Y-4.35
X2.75Y-4.45
X2.75Y-4.55
X2.75Y-4.65
X2.75Y-4.75
X2.75Y-4.85
X2.75Y-4.95
X2.75Y-5.05
X2.75Y-5.15
X2.75Y-5.25
X2.75Y-5.35
X2.85Y-3.65
X2.85Y-3.75
X2.85Y-3.85
X2.85Y-3.95
X2.85Y-4.05
X2.85Y-4.15
X2.85Y-4.25
X2.85Y-4.35
X2.85Y-4.45
X2.85Y-4.55
X2.85Y-4.65
X2.85Y-4.75
X2.85Y-4.85
X2.85Y-4.95
X2.85Y-5.05
X2.85Y-5.15
X2.85Y-5.25
X2.85Y-5.35
X2.95Y-3.65
X2.95Y-3.75
X2.95Y-3.85
X2.95Y-3.95
X2.95Y-4.05
X2.95Y-4.15
X2.95Y-4.25
X2.95Y-4.35
X2.95Y-4.45
X2.95Y-4.55
X2.95Y-4.65
X2.95Y-4.75
X2.95Y-4.85
X2.95Y-4.95
X2.95Y-5.05
X2.95Y-5.15
X2.95Y-5.25
X2.95Y-5.35
X3.05Y-3.65
X3.05Y-3.75
X3.05Y-3.85
X3.05Y-3.95
X3.05Y-4.05
X3.05Y-4.15
X3.05Y-4.25
X3.05Y-4.35
X3.05Y-4.45
X3.05Y-4.55
X3.05Y-4.65
X3.05Y-4.75
X3.05Y-4.85
X3.05Y-4.95
X3.05Y-5.05
X3.05Y-5.15
X3.05Y-5.25
X3.05Y-5.35
X3.15Y-3.65
X3.15Y-3.75
X3.15Y-3.85
X3.15Y-3.95
X3.15Y-4.05
X3.15Y-4.15
X3.15Y-4.25
X3.15Y-4.35
X3.15Y-4.45
X3.15Y-4.55
X3.15Y-4.65
X3.15Y-4.75
X3.15Y-4.85
X3.15Y-4.95
X3.15Y-5.05
X3.15Y-5.15
X3.15Y-5.25
X3.15Y-5.35
X3.2Y-5.2
X3.25Y-3.65
X3.25Y-3.75
X3.25Y-3.85
X3.25Y-3.95
X3.25Y-4.05
X3.25Y-4.15
X3.25Y-4.25
X3.25Y-4.35
X3.25Y-4.45
X3.25Y-4.55
X3.25Y-4.65
X3.25Y-4.75
X3.25Y-4.85
X3.25Y-4.95
X3.25Y-5.05
X3.25Y-5.15
X3.25Y-5.25
X3.25Y-5.35
X3.35Y-3.65
X3.35Y-3.75
X3.35Y-3.85
X3.35Y-3.95
X3.35Y-4.05
X3.35Y-4.15
X3.35Y-4.25
X3.35Y-4.35
X3.35Y-4.45
X3.35Y-4.55
X3.35Y-4.65
X3.35Y-4.75
X3.35Y-4.85
X3.35Y-4.95
X3.35Y-5.05
X3.35Y-5.15
X3.35Y-5.25
X3.35Y-5.35
X3.45Y-3.65
X3.45Y-3.75
X3.45Y-3.85
X3.45Y-3.95
X3.45Y-4.05
X3.45Y-4.15
X3.45Y-4.25
X3.45Y-4.35
X3.45Y-4.45
X3.45Y-4.55
X3.45Y-4.65
X3.45Y-4.75
X3.45Y-4.85
X3.45Y-4.95
X3.45Y-5.05
X3.45Y-5.15
X3.45Y-5.25
X3.45Y-5.35
X3.55Y-3.65
X3.55Y-3.75
X3.55Y-3.85
X3.55Y-3.95
X3.55Y-4.05
X3.55Y-4.15
X3.55Y-4.25
X3.55Y-4.35
X3.55Y-4.45
X3.55Y-4.55
X3.55Y-4.65
X3.55Y-4.75
X3.55Y-4.85
X3.55Y-4.95
X3.55Y-5.05
X3.55Y-5.15
X3.55Y-5.25
X3.55Y-5.35
X3.65Y-3.65
X3.65Y-3.75
X3.65Y-3.85
X3.65Y-3.95
X3.65Y-4.05
X3.65Y-4.15
X3.65Y-4.25
X3.65Y-4.35
X3.65Y-4.45
X3.65Y-4.55
X3.65Y-4.65
X3.65Y-4.75
X3.65Y-4.85
X3.65Y-4.95
X3.65Y-5.05
X3.65Y-5.05
X3.65Y-5.15
X3.65Y-5.25
X3.65Y-5.35
X3.75Y-3.65
X3.75Y-3.75
X3.75Y-3.85
X3.75Y-3.95
X3.75Y-4.05
X3.75Y-4.15
X3.75Y-4.25
X3.75Y-4.35
X3.75Y-4.45
X3.75Y-4.55
X3.75Y-4.65
X3.75Y-4.75
X3.75Y-4.85
X3.75Y-4.95
X3.75Y-5.05
X3.75Y-5.15
X3.75Y-5.25
X3.75Y-5.35
X3.85Y-3.65
X3.85Y-3.75
X3.85Y-3.85
X3.85Y-3.95
X3.85Y-4.05
X3.85Y-4.15
X3.85Y-4.25
X3.85Y-4.35
X3.85Y-4.45
X3.85Y-4.55
X3.85Y-4.65
X3.85Y-4.75
X3.85Y-4.85
X3.85Y-4.95
X3.85Y-5.05
X3.85Y-5.15
X3.85Y-5.25
X3.85Y-5.35
X3.95Y-3.65
X3.95Y-3.75
X3.95Y-3.85
X3.95Y-3.95
X3.95Y-4.05
X3.95Y-4.15
X3.95Y-4.25
X3.95Y-4.35
X3.95Y-4.45
X3.95Y-4.55
X3.95Y-4.65
X3.95Y-4.75
X3.95Y-4.85
X3.95Y-4.95
X3.95Y-5.05
X3.95Y-5.15
X3.95Y-5.25
X3.95Y-5.35
X4.05Y-3.65
X4.05Y-3.75
X4.05Y-3.85
X4.05Y-3.95
X4.05Y-4.05
X4.05Y-4.15
X4.05Y-4.25
X4.05Y-4.35
X4.05Y-4.45
X4.05Y-4.55
X4.05Y-4.65
X4.05Y-4.75
X4.05Y-4.85
X4.05Y-4.95
X4.05Y-5.05
X4.05Y-5.15
X4.05Y-5.25
X4.05Y-5.35
X4.15Y-3.65
X4.15Y-3.75
X4.15Y-3.85
X4.15Y-3.95
X4.15Y-4.05
X4.15Y-4.15
X4.15Y-4.25
X4.15Y-4.35
X4.15Y-4.45
X4.15Y-4.55
X4.15Y-4.65
X4.15Y-4.75
X4.15Y-4.85
X4.15Y-4.95
X4.15Y-5.05
X4.15Y-5.15
X4.15Y-5.25
X4.15Y-5.35
X4.25Y-3.65
X4.25Y-3.75
X4.25Y-3.85
X4.25Y-3.95
X4.25Y-4.05
X4.25Y-4.15
X4.25Y-4.25
X4.25Y-4.35
X4.25Y-4.45
X4.25Y-4.55
X4.25Y-4.65
X4.25Y-4.75
X4.25Y-4.85
X4.25Y-4.95
X4.25Y-5.05
X4.25Y-5.15
X4.25Y-5.25
X4.25Y-5.35
X4.35Y-3.65
X4.35Y-3.75
X4.35Y-3.85
X4.35Y-3.95
X4.35Y-4.05
X4.35Y-4.15
X4.35Y-4.25
X4.35Y-4.35
X4.35Y-4.45
X4.35Y-4.55
X4.35Y-4.65
X4.35Y-4.75
X4.35Y-4.85
X4.35Y-4.95
X4.35Y-5.05
X4.35Y-5.15
X4.35Y-5.25
X4.35Y-5.35
X4.45Y-3.65
X4.45Y-3.75
X4.45Y-3.85
X4.45Y-3.95
X4.45Y-4.05
X4.45Y-4.15
X4.45Y-4.25
X4.45Y-4.35
X4.45Y-4.45
X4.45Y-4.55
X4.45Y-4.65
X4.45Y-4.75
X4.45Y-4.85
X4.45Y-4.95
X4.45Y-5.05
X4.45Y-5.15
X4.45Y-5.25
X4.45Y-5.35
X4.55Y-3.65
X4.55Y-3.75
X4.55Y-3.85
X4.55Y-3.95
X4.55Y-4.05
X4.55Y-4.15
X4.55Y-4.25
X4.55Y-4.35
X4.55Y-4.45
X4.55Y-4.55
X4.55Y-4.65
X4.55Y-4.75
X4.55Y-4.85
X4.55Y-4.95
X4.55Y-5.05
X4.55Y-5.15
X4.55Y-5.25
X4.55Y-5.35
X4.65Y-3.65
X4.65Y-3.75
X4.65Y-3.85
X4.65Y-3.95
X4.65Y-4.05
X4.65Y-4.15
X4.65Y-4.25
X4.65Y-4.35
X4.65Y-4.45
X4.65Y-4.55
X4.65Y-4.65
X4.65Y-4.75
X4.65Y-4.85
X4.65Y-4.95
X4.65Y-5.05
X4.65Y-5.15
X4.65Y-5.25
X4.65Y-5.35
X4.75Y-3.65
X4.75Y-3.75
X4.75Y-3.85
X4.75Y-3.95
X4.75Y-4.05
X4.75Y-4.15
X4.75Y-4.25
X4.75Y-4.35
X4.75Y-4.45
X4.75Y-4.55
X4.75Y-4.65
X4.75Y-4.75
X4.75Y-4.85
X4.75Y-4.95
X4.75Y-5.05
X4.75Y-5.15
X4.75Y-5.25
X4.75Y-5.35
X4.85Y-3.65
X4.85Y-3.75
X4.85Y-3.85
X4.85Y-3.95
X4.85Y-4.05
X4.85Y-4.15
X4.85Y-4.25
X4.85Y-4.35
X4.85Y-4.45
X4.85Y-4.55
X4.85Y-4.65
X4.85Y-4.75
X4.85Y-4.85
X4.85Y-4.95
X4.85Y-5.05
X4.85Y-5.15
X4.85Y-5.25
X4.85Y-5.35
X4.95Y-3.65
X4.95Y-3.75
X4.95Y-3.85
X4.95Y-3.95
X4.95Y-4.05
X4.95Y-4.15
X4.95Y-4.25
X4.95Y-4.35
X4.95Y-4.45
X4.95Y-4.55
X4.95Y-4.65
X4.95Y-4.75
X4.95Y-4.85
X4.95Y-4.95
X4.95Y-5.05
X4.95Y-5.15
X4.95Y-5.25
X4.95Y-5.35
X5.05Y-3.65
X5.05Y-3.75
X5.05Y-3.85
X5.05Y-3.95
X5.05Y-4.05
X5.05Y-4.15
X5.05Y-4.25
X5.05Y-4.35
X5.05Y-4.45
X5.05Y-4.55
X5.05Y-4.65
X5.05Y-4.75
X5.05Y-4.85
X5.05Y-4.95
X5.05Y-5.05
X5.05Y-5.15
X5.05Y-5.25
X5.05Y-5.35
X5.15Y-3.65
X5.15Y-3.75
X5.15Y-3.85
X5.15Y-3.95
X5.15Y-4.05
X5.15Y-4.15
X5.15Y-4.25
X5.15Y-4.35
X5.15Y-4.45
X5.15Y-4.55
X5.15Y-4.65
X5.15Y-4.75
X5.15Y-4.85
X5.15Y-4.95
X5.15Y-5.05
X5.15Y-5.15
X5.15Y-5.25
X5.15Y-5.35
X5.25Y-3.65
X5.25Y-3.75
X5.25Y-3.85
X5.25Y-3.95
X5.25Y-4.05
X5.25Y-4.15
X5.25Y-4.25
X5.25Y-4.35
X5.25Y-4.45
X5.25Y-4.55
X5.25Y-4.65
X5.25Y-4.75
X5.25Y-4.85
X5.25Y-4.95
X5.25Y-5.05
X5.25Y-5.15
X5.25Y-5.25
X5.25Y-5.35
X5.35Y-3.65
X5.35Y-3.75
X5.35Y-3.85
X5.35Y-3.95
X5.35Y-4.05
X5.35Y-4.15
X5.35Y-4.25
X5.35Y-4.35
X5.35Y-4.45
X5.35Y-4.55
X5.35Y-4.65
X5.35Y-4.75
X5.35Y-4.85
X5.35Y-4.95
X5.35Y-5.05
X5.35Y-5.15
X5.35Y-5.25
X5.35Y-5.35
X5.45Y-3.65
X5.45Y-3.75
X5.45Y-3.85
X5.45Y-3.95
X5.45Y-4.05
X5.45Y-4.15
X5.45Y-4.25
X5.45Y-4.35
X5.45Y-4.45
X5.45Y-4.55
X5.45Y-4.65
X5.45Y-4.75
X5.45Y-4.85
X5.45Y-4.95
X5.45Y-5.05
X5.45Y-5.15
X5.45Y-5.25
X5.45Y-5.35
X5.55Y-3.65
X5.55Y-3.75
X5.55Y-3.85
X5.55Y-3.95
X5.55Y-4.05
X5.55Y-4.15
X5.55Y-4.25
X5.55Y-4.35
X5.55Y-4.45
X5.55Y-4.55
X5.55Y-4.65
X5.55Y-4.75
X5.55Y-4.85
X5.55Y-4.95
X5.55Y-5.05
X5.55Y-5.15
X5.55Y-5.25
X5.55Y-5.35
X5.65Y-3.65
X5.65Y-3.75
X5.65Y-3.85
X5.65Y-3.95
X5.65Y-4.05
X5.65Y-4.15
X5.65Y-4.25
X5.65Y-4.35
X5.65Y-4.45
X5.65Y-4.55
X5.65Y-4.65
X5.65Y-4.75
X5.65Y-4.85
X5.65Y-4.95
X5.65Y-5.05
X5.65Y-5.15
X5.65Y-5.25
X5.65Y-5.35
X5.75Y-3.65
X5.75Y-3.75
X5.75Y-3.85
X5.75Y-3.95
X5.75Y-4.05
X5.75Y-4.15
X5.75Y-4.25
X5.75Y-4.35
X5.75Y-4.45
X5.75Y-4.55
X5.75Y-4.65
X5.75Y-4.75
X5.75Y-4.85
X5.75Y-4.95
X5.75Y-5.05
X5.75Y-5.15
X5.75Y-5.25
X5.75Y-5.35
X5.85Y-3.65
X5.85Y-3.75
X5.85Y-3.85
X5.85Y-3.95
X5.85Y-4.05
X5.85Y-4.15
X5.85Y-4.25
X5.85Y-4.35
X5.85Y-4.45
X5.85Y-4.55
X5.85Y-4.65
X5.85Y-4.75
X5.85Y-4.85
X5.85Y-4.95
X5.85Y-5.05
X5.85Y-5.15
X5.85Y-5.25
X5.85Y-5.35
X5.95Y-3.65
X5.95Y-3.75
X5.95Y-3.85
X5.95Y-3.95
X5.95Y-4.05
X5.95Y-4.15
X5.95Y-4.25
X5.95Y-4.35
X5.95Y-4.45
X5.95Y-4.55
X5.95Y-4.65
X5.95Y-4.75
X5.95Y-4.85
X5.95Y-4.95
X5.95Y-5.05
X5.95Y-5.15
X5.95Y-5.25
X5.95Y-5.35
X6.05Y-3.65
X6.05Y-3.75
X6.05Y-3.85
X6.05Y-3.95
X6.05Y-4.05
X6.05Y-4.15
X6.05Y-4.25
X6.05Y-4.35
X6.05Y-4.45
X6.05Y-4.55
X6.05Y-4.65
X6.05Y-4.75
X6.05Y-4.85
X6.05Y-4.95
X6.05Y-5.05
X6.05Y-5.15
X6.05Y-5.25
X6.05Y-5.35
X6.15Y-3.65
X6.15Y-3.75
X6.15Y-3.85
X6.15Y-3.95
X6.15Y-4.05
X6.15Y-4.15
X6.15Y-4.25
X6.15Y-4.35
X6.15Y-4.45
X6.15Y-4.55
X6.15Y-4.65
X6.15Y-4.75
X6.15Y-4.85
X6.15Y-4.95
X6.15Y-5.05
X6.15Y-5.15
X6.15Y-5.25
X6.15Y-5.35
X6.25Y-3.65
X6.25Y-3.75
X6.25Y-3.85
X6.25Y-3.95
X6.25Y-4.05
X6.25Y-4.15
X6.25Y-4.25
X6.25Y-4.35
X6.25Y-4.45
X6.25Y-4.55
X6.25Y-4.65
X6.25Y-4.75
X6.25Y-4.85
X6.25Y-4.95
X6.25Y-5.05
X6.25Y-5.15
X6.25Y-5.25
X6.25Y-5.35
X6.35Y-3.65
X6.35Y-3.75
X6.35Y-3.85
X6.35Y-3.95
X6.35Y-4.05
X6.35Y-4.15
X6.35Y-4.25
X6.35Y-4.35
X6.35Y-4.45
X6.35Y-4.55
X6.35Y-4.65
X6.35Y-4.75
X6.35Y-4.85
X6.35Y-4.95
X6.35Y-5.05
X6.35Y-5.15
X6.35Y-5.25
X6.35Y-5.35
X6.45Y-3.65
X6.45Y-3.75
X6.45Y-3.85
X6.45Y-3.95
X6.45Y-4.05
X6.45Y-4.15
X6.45Y-4.25
X6.45Y-4.35
X6.45Y-4.45
X6.45Y-4.55
X6.45Y-4.65
X6.45Y-4.75
X6.45Y-4.85
X6.45Y-4.95
X6.45Y-5.05
X6.45Y-5.15
X6.45Y-5.25
X6.45Y-5.35
X6.55Y-3.65
X6.55Y-3.75
X6.55Y-3.85
X6.55Y-3.95
X6.55Y-4.05
X6.55Y-4.15
X6.55Y-4.25
X6.55Y-4.35
X6.55Y-4.45
X6.55Y-4.55
X6.55Y-4.65
X6.55Y-4.75
X6.55Y-4.85
X6.55Y-4.95
X6.55Y-5.05
X6.55Y-5.15
X6.55Y-5.25
X6.55Y-5.35
X6.65Y-3.65
X6.65Y-3.75
X6.65Y-3.85
X6.65Y-3.95
X6.65Y-4.05
X6.65Y-4.15
X6.65Y-4.25
X6.65Y-4.35
X6.65Y-4.45
X6.65Y-4.55
X6.65Y-4.65
X6.65Y-4.75
X6.65Y-4.85
X6.65Y-4.95
X6.65Y-5.05
X6.65Y-5.15
X6.65Y-5.25
X6.65Y-5.35
T2
X3.45Y-5.05
X3.45Y-5.15
X3.85Y-3.75
X3.85Y-3.85
X3.95Y-4.35
X3.95Y-4.65
X4.05Y-4.35
X4.05Y-4.65
X4.15Y-4.35
X4.15Y-4.65
X4.25Y-4.35
X4.25Y-4.65
X4.35Y-4.35
X4.35Y-4.65
X4.45Y-4.35
X4.45Y-4.65
X4.55Y-4.35
X4.55Y-4.65
X4.65Y-3.75
X4.65Y-3.85
T3
X2.35Y-5.05
X2.45Y-5.05
X2.55Y-5.05
X2.65Y-5.05
X2.75Y-5.05
X2.85Y-5.05
X2.95Y-3.95
X2.95Y-5.05
X3.05Y-3.95
X3.05Y-5.05
X3.15Y-3.95
X3.15Y-5.05
X3.25Y-3.95
X3.25Y-5.05
X5.65Y-5.05
X5.65Y-5.15
T4
X2.35Y-3.75
X2.35Y-3.85
X3.65Y-5.05
X3.65Y-5.15
X4.95Y-4.15
X4.95Y-4.95
X5.05Y-4.15
X5.05Y-4.95
X5.15Y-4.15
X5.15Y-4.95
X5.25Y-4.15
X5.25Y-4.95
X5.35Y-4.15
X5.35Y-4.95
X5.45Y-4.15
X5.45Y-4.95
X5.55Y-4.15
X5.55Y-4.95
X5.65Y-4.15
X5.65Y-4.95
X5.75Y-4.15
X5.75Y-4.95
X5.85Y-4.15
X5.85Y-4.95
X5.95Y-4.15
X5.95Y-4.95
X6.05Y-4.15
X6.05Y-4.95
X6.15Y-4.15
X6.25Y-4.15
X6.35Y-4.15
X6.45Y-4.15
T5
X2.55Y-3.95
X2.75Y-3.95
T6
X2.3Y-4.1
X2.3Y-4.9
X6.6Y-3.7
X6.6Y-5.3
T0
M30
